<svg t="1682070100912" class="icon" viewBox="0 0 1024 1024" version="1.1" xmlns="http://www.w3.org/2000/svg" p-id="5502" width="200" height="200"><path d="M444.202667 149.333333C281.312 149.333333 149.333333 266.442667 149.333333 410.976c0 82.506667 43.210667 155.914667 110.592 204.010667v132.266666l129.205334-79.466666a330.186667 330.186667 0 0 0 55.082666 4.64c162.869333 0 294.869333-117.109333 294.869334-261.408C739.306667 266.442667 607.082667 149.333333 444.202667 149.333333zM296.864 448.384a37.418667 37.418667 0 1 1 36.96-37.408 37.141333 37.141333 0 0 1-36.96 37.408z m147.338667 0A37.141333 37.141333 0 1 1 470.4 437.333333a37.130667 37.130667 0 0 1-26.229333 11.050667z m147.530666 0A37.141333 37.141333 0 1 1 617.984 437.333333a37.162667 37.162667 0 0 1-26.250667 11.050667z m191.946667-75.509333l1.162667 18.592c0.245333 17.642667 0 16 0 32.288 0 171.488-133.333333 290.229333-318.56 290.229333h-63.690667c50.666667 49.962667 109.450667 80.629333 191.008 80.629333a304.341333 304.341333 0 0 0 50.901333-4.405333l118.976 74.122667v-122.026667c64.597333-44.8 106.176-114.314667 106.176-192.394667a231.968 231.968 0 0 0-85.973333-177.066666z m0 0" fill="#1C87FF" p-id="5503"></path></svg>